<mxfile host="Electron" modified="2025-03-09T08:38:47.956Z" agent="Mozilla/5.0 (Windows NT 10.0; Win64; x64) AppleWebKit/537.36 (KHTML, like Gecko) draw.io/22.1.18 Chrome/120.0.6099.199 Electron/28.1.2 Safari/537.36" etag="cX9tzLqDDBz_oisZ4XZf" version="22.1.18" type="device">
  <diagram name="Page-1" id="9n51V0birsyVbleR57p-">
    <mxGraphModel dx="1050" dy="621" grid="1" gridSize="10" guides="1" tooltips="1" connect="1" arrows="1" fold="1" page="1" pageScale="1" pageWidth="827" pageHeight="1169" math="0" shadow="0">
      <root>
        <mxCell id="0" />
        <mxCell id="1" parent="0" />
        <mxCell id="q3a1O05Y6yr2lSj0xwcz-22" value="Next.js application&lt;br&gt;Cloud Run" style="rounded=0;whiteSpace=wrap;html=1;fontStyle=1;fillColor=#EFF0F5;verticalAlign=top;" vertex="1" parent="1">
          <mxGeometry x="185" y="40" width="235" height="220" as="geometry" />
        </mxCell>
        <mxCell id="2BwICHEU_G4UWTc_6JAI-1" value="&lt;span style=&quot;font-size: 14px;&quot;&gt;&lt;b&gt;&amp;nbsp; User Feedback Form Diagram&lt;/b&gt;&lt;/span&gt;" style="rounded=0;whiteSpace=wrap;html=1;fillColor=#f5f5f5;fontColor=#333333;strokeColor=#666666;align=left;" parent="1" vertex="1">
          <mxGeometry width="600" height="30" as="geometry" />
        </mxCell>
        <mxCell id="2BwICHEU_G4UWTc_6JAI-2" value="Â© Sindre Ditlefsen 09.03.2025" style="text;html=1;strokeColor=none;fillColor=none;align=right;verticalAlign=middle;whiteSpace=wrap;rounded=0;" parent="1" vertex="1">
          <mxGeometry x="340" width="250" height="30" as="geometry" />
        </mxCell>
        <mxCell id="q3a1O05Y6yr2lSj0xwcz-1" value="User" style="shape=umlActor;verticalLabelPosition=bottom;verticalAlign=top;html=1;outlineConnect=0;" vertex="1" parent="1">
          <mxGeometry x="30" y="130" width="30" height="60" as="geometry" />
        </mxCell>
        <mxCell id="q3a1O05Y6yr2lSj0xwcz-4" value="" style="endArrow=classic;html=1;rounded=0;" edge="1" parent="1" source="q3a1O05Y6yr2lSj0xwcz-1">
          <mxGeometry width="50" height="50" relative="1" as="geometry">
            <mxPoint x="390" y="410" as="sourcePoint" />
            <mxPoint x="170" y="160" as="targetPoint" />
          </mxGeometry>
        </mxCell>
        <mxCell id="q3a1O05Y6yr2lSj0xwcz-5" value="" style="rounded=1;whiteSpace=wrap;html=1;" vertex="1" parent="1">
          <mxGeometry x="203" y="90" width="190" height="140" as="geometry" />
        </mxCell>
        <mxCell id="q3a1O05Y6yr2lSj0xwcz-6" value="Name:" style="text;html=1;strokeColor=none;fillColor=none;align=left;verticalAlign=middle;whiteSpace=wrap;rounded=0;" vertex="1" parent="1">
          <mxGeometry x="213" y="110" width="60" height="30" as="geometry" />
        </mxCell>
        <mxCell id="q3a1O05Y6yr2lSj0xwcz-7" value="Email:" style="text;html=1;strokeColor=none;fillColor=none;align=left;verticalAlign=middle;whiteSpace=wrap;rounded=0;" vertex="1" parent="1">
          <mxGeometry x="213" y="140" width="60" height="30" as="geometry" />
        </mxCell>
        <mxCell id="q3a1O05Y6yr2lSj0xwcz-8" value="Message:" style="text;html=1;strokeColor=none;fillColor=none;align=left;verticalAlign=middle;whiteSpace=wrap;rounded=0;" vertex="1" parent="1">
          <mxGeometry x="213" y="170" width="60" height="30" as="geometry" />
        </mxCell>
        <mxCell id="q3a1O05Y6yr2lSj0xwcz-11" value="" style="endArrow=none;dashed=1;html=1;rounded=0;" edge="1" parent="1">
          <mxGeometry width="50" height="50" relative="1" as="geometry">
            <mxPoint x="253" y="130" as="sourcePoint" />
            <mxPoint x="293" y="130" as="targetPoint" />
          </mxGeometry>
        </mxCell>
        <mxCell id="q3a1O05Y6yr2lSj0xwcz-12" value="" style="endArrow=none;dashed=1;html=1;rounded=0;" edge="1" parent="1">
          <mxGeometry width="50" height="50" relative="1" as="geometry">
            <mxPoint x="253" y="160" as="sourcePoint" />
            <mxPoint x="293" y="160" as="targetPoint" />
          </mxGeometry>
        </mxCell>
        <mxCell id="q3a1O05Y6yr2lSj0xwcz-15" value="" style="endArrow=none;dashed=1;html=1;rounded=0;" edge="1" parent="1">
          <mxGeometry width="50" height="50" relative="1" as="geometry">
            <mxPoint x="273" y="190" as="sourcePoint" />
            <mxPoint x="353" y="190" as="targetPoint" />
          </mxGeometry>
        </mxCell>
        <mxCell id="q3a1O05Y6yr2lSj0xwcz-39" value="Google Bucket&#xa;Stores messages as JSON-files&#xa;in bucket" style="shape=image;verticalLabelPosition=bottom;labelBackgroundColor=default;verticalAlign=top;aspect=fixed;imageAspect=0;image=data:image/png,iVBORw0KGgoAAAANSUhEUgAAADAAAAAwCAYAAABXAvmHAAAAxXpUWHRSYXcgcHJvZmlsZSB0eXBlIGV4aWYAAHjabVBbDsMwCPvnFDtCgsmD46RrJ+0GO/5IQru2miUcgpFDoO3zftGjg6OQpFKz5hwMoqLcLKlhog2OQQYPwCW7X+p0CGwl/Dpr9v69Hg+DeTTL0smoPl1YroKK+9ebkT+EPhFbsrqRuhF4CtEN2vxWyFrL+QvLFq6oM6gTg4cc1ae43aXY9tZk74B5Q0QwBvIcAD0SoVmCwWqNxpYDxVhQfBJbyL897aAvGBZZknUBz70AAAGDaUNDUElDQyBwcm9maWxlAAB4nH2RPUjDQBzFX1OlrVQc7CDikKF1souKOJYqFsFCaSu06mBy6Rc0MSQpLo6Ca8HBj8Wqg4uzrg6ugiD4AeIuOCm6SIn/SwotYjw47se7e4+7d4DQqjPV7EsAqmYZ2VRSLBRXxMAr/AghiBhCEjP1dG4hD8/xdQ8fX+/iPMv73J9jUCmZDPCJxAmmGxbxOvHMpqVz3ieOsKqkEJ8TTxh0QeJHrssuv3GuOCzwzIiRz84RR4jFSg/LPcyqhko8TRxVVI3yhYLLCuctzmq9wTr35C8Ml7TlHNdpjiGFRaSRgQgZDdRQh4U4rRopJrK0n/Twjzr+DLlkctXAyDGPDaiQHD/4H/zu1ixPTbpJ4STQ/2LbHzEgsAu0m7b9fWzb7RPA/wxcaV3/RguY/SS92dWiR8DQNnBx3dXkPeByBxh50iVDciQ/TaFcBt7P6JuKwPAtMLDq9tbZx+kDkKeulm6Ag0NgvELZax7vDvb29u+ZTn8/ZTVyobgFxgIAAA12aVRYdFhNTDpjb20uYWRvYmUueG1wAAAAAAA8P3hwYWNrZXQgYmVnaW49Iu+7vyIgaWQ9Ilc1TTBNcENlaGlIenJlU3pOVGN6a2M5ZCI/Pgo8eDp4bXBtZXRhIHhtbG5zOng9ImFkb2JlOm5zOm1ldGEvIiB4OnhtcHRrPSJYTVAgQ29yZSA0LjQuMC1FeGl2MiI+CiA8cmRmOlJERiB4bWxuczpyZGY9Imh0dHA6Ly93d3cudzMub3JnLzE5OTkvMDIvMjItcmRmLXN5bnRheC1ucyMiPgogIDxyZGY6RGVzY3JpcHRpb24gcmRmOmFib3V0PSIiCiAgICB4bWxuczp4bXBNTT0iaHR0cDovL25zLmFkb2JlLmNvbS94YXAvMS4wL21tLyIKICAgIHhtbG5zOnN0RXZ0PSJodHRwOi8vbnMuYWRvYmUuY29tL3hhcC8xLjAvc1R5cGUvUmVzb3VyY2VFdmVudCMiCiAgICB4bWxuczpkYz0iaHR0cDovL3B1cmwub3JnL2RjL2VsZW1lbnRzLzEuMS8iCiAgICB4bWxuczpHSU1QPSJodHRwOi8vd3d3LmdpbXAub3JnL3htcC8iCiAgICB4bWxuczp0aWZmPSJodHRwOi8vbnMuYWRvYmUuY29tL3RpZmYvMS4wLyIKICAgIHhtbG5zOnhtcD0iaHR0cDovL25zLmFkb2JlLmNvbS94YXAvMS4wLyIKICAgeG1wTU06RG9jdW1lbnRJRD0iZ2ltcDpkb2NpZDpnaW1wOmE0NjFlNDgyLTYwZGUtNGYzMS04MTIxLTcwNTk5MTQ5Y2UxNyIKICAgeG1wTU06SW5zdGFuY2VJRD0ieG1wLmlpZDoxODcwNjk1MC1jMWIwLTQ2YTUtOTFlYi03YTMxNjExZTQ1ZTMiCiAgIHhtcE1NOk9yaWdpbmFsRG9jdW1lbnRJRD0ieG1wLmRpZDplN2ZkMDc3NC01YjI0LTRlNmYtOWM5OS00YTk5YmY5ZDQ4YmQiCiAgIGRjOkZvcm1hdD0iaW1hZ2UvcG5nIgogICBHSU1QOkFQST0iMi4wIgogICBHSU1QOlBsYXRmb3JtPSJXaW5kb3dzIgogICBHSU1QOlRpbWVTdGFtcD0iMTc0MTUwOTQ2ODQyODk1OSIKICAgR0lNUDpWZXJzaW9uPSIyLjEwLjM2IgogICB0aWZmOk9yaWVudGF0aW9uPSIxIgogICB4bXA6Q3JlYXRvclRvb2w9IkdJTVAgMi4xMCIKICAgeG1wOk1ldGFkYXRhRGF0ZT0iMjAyNTowMzowOVQwOTozNzo0NyswMTowMCIKICAgeG1wOk1vZGlmeURhdGU9IjIwMjU6MDM6MDlUMDk6Mzc6NDcrMDE6MDAiPgogICA8eG1wTU06SGlzdG9yeT4KICAgIDxyZGY6U2VxPgogICAgIDxyZGY6bGkKICAgICAgc3RFdnQ6YWN0aW9uPSJzYXZlZCIKICAgICAgc3RFdnQ6Y2hhbmdlZD0iLyIKICAgICAgc3RFdnQ6aW5zdGFuY2VJRD0ieG1wLmlpZDpkYTRiN2I2MS04M2MxLTQ4M2ItYTU0Yi00ZjYxM2M5Y2QxYTciCiAgICAgIHN0RXZ0OnNvZnR3YXJlQWdlbnQ9IkdpbXAgMi4xMCAoV2luZG93cykiCiAgICAgIHN0RXZ0OndoZW49IjIwMjUtMDMtMDlUMDk6Mzc6NDgiLz4KICAgIDwvcmRmOlNlcT4KICAgPC94bXBNTTpIaXN0b3J5PgogIDwvcmRmOkRlc2NyaXB0aW9uPgogPC9yZGY6UkRGPgo8L3g6eG1wbWV0YT4KICAgICAgICAgICAgICAgICAgICAgICAgICAgICAgICAgICAgICAgICAgICAgICAgICAgICAgICAgICAgICAgICAgICAgICAgICAgICAgICAgICAgICAgICAgICAgICAgICAgIAogICAgICAgICAgICAgICAgICAgICAgICAgICAgICAgICAgICAgICAgICAgICAgICAgICAgICAgICAgICAgICAgICAgICAgICAgICAgICAgICAgICAgICAgICAgICAgICAgICAgCiAgICAgICAgICAgICAgICAgICAgICAgICAgICAgICAgICAgICAgICAgICAgICAgICAgICAgICAgICAgICAgICAgICAgICAgICAgICAgICAgICAgICAgICAgICAgICAgICAgICAKICAgICAgICAgICAgICAgICAgICAgICAgICAgICAgICAgICAgICAgICAgICAgICAgICAgICAgICAgICAgICAgICAgICAgICAgICAgICAgICAgICAgICAgICAgICAgICAgICAgIAogICAgICAgICAgICAgICAgICAgICAgICAgICAgICAgICAgICAgICAgICAgICAgICAgICAgICAgICAgICAgICAgICAgICAgICAgICAgICAgICAgICAgICAgICAgICAgICAgICAgCiAgICAgICAgICAgICAgICAgICAgICAgICAgICAgICAgICAgICAgICAgICAgICAgICAgICAgICAgICAgICAgICAgICAgICAgICAgICAgICAgICAgICAgICAgICAgICAgICAgICAKICAgICAgICAgICAgICAgICAgICAgICAgICAgICAgICAgICAgICAgICAgICAgICAgICAgICAgICAgICAgICAgICAgICAgICAgICAgICAgICAgICAgICAgICAgICAgICAgICAgIAogICAgICAgICAgICAgICAgICAgICAgICAgICAgICAgICAgICAgICAgICAgICAgICAgICAgICAgICAgICAgICAgICAgICAgICAgICAgICAgICAgICAgICAgICAgICAgICAgICAgCiAgICAgICAgICAgICAgICAgICAgICAgICAgICAgICAgICAgICAgICAgICAgICAgICAgICAgICAgICAgICAgICAgICAgICAgICAgICAgICAgICAgICAgICAgICAgICAgICAgICAKICAgICAgICAgICAgICAgICAgICAgICAgICAgICAgICAgICAgICAgICAgICAgICAgICAgICAgICAgICAgICAgICAgICAgICAgICAgICAgICAgICAgICAgICAgICAgICAgICAgIAogICAgICAgICAgICAgICAgICAgICAgICAgICAgICAgICAgICAgICAgICAgICAgICAgICAgICAgICAgICAgICAgICAgICAgICAgICAgICAgICAgICAgICAgICAgICAgICAgICAgCiAgICAgICAgICAgICAgICAgICAgICAgICAgICAgICAgICAgICAgICAgICAgICAgICAgICAgICAgICAgICAgICAgICAgICAgICAgICAgICAgICAgICAgICAgICAgICAgICAgICAKICAgICAgICAgICAgICAgICAgICAgICAgICAgICAgICAgICAgICAgICAgICAgICAgICAgICAgICAgICAgICAgICAgICAgICAgICAgICAgICAgICAgICAgICAgICAgICAgICAgIAogICAgICAgICAgICAgICAgICAgICAgICAgICAgICAgICAgICAgICAgICAgICAgICAgICAgICAgICAgICAgICAgICAgICAgICAgICAgICAgICAgICAgICAgICAgICAgICAgICAgCiAgICAgICAgICAgICAgICAgICAgICAgICAgICAgICAgICAgICAgICAgICAgICAgICAgICAgICAgICAgICAgICAgICAgICAgICAgICAgICAgICAgICAgICAgICAgICAgICAgICAKICAgICAgICAgICAgICAgICAgICAgICAgICAgICAgICAgICAgICAgICAgICAgICAgICAgICAgICAgICAgICAgICAgICAgICAgICAgICAgICAgICAgICAgICAgICAgICAgICAgIAogICAgICAgICAgICAgICAgICAgICAgICAgICAgICAgICAgICAgICAgICAgICAgICAgICAgICAgICAgICAgICAgICAgICAgICAgICAgICAgICAgICAgICAgICAgICAgICAgICAgCiAgICAgICAgICAgICAgICAgICAgICAgICAgICAgICAgICAgICAgICAgICAgICAgICAgICAgICAgICAgICAgICAgICAgICAgICAgICAgICAgICAgICAgICAgICAgICAgICAgICAKICAgICAgICAgICAgICAgICAgICAgICAgICAgICAgICAgICAgICAgICAgICAgICAgICAgICAgICAgICAgICAgICAgICAgICAgICAgICAgICAgICAgICAgICAgICAgICAgICAgIAogICAgICAgICAgICAgICAgICAgICAgICAgICAgICAgICAgICAgICAgICAgICAgICAgICAgICAgICAgICAgICAgICAgICAgICAgICAgICAgICAgICAgICAgICAgICAgICAgICAgCiAgICAgICAgICAgICAgICAgICAgICAgICAgIAo8P3hwYWNrZXQgZW5kPSJ3Ij8+j0ynRQAAAAZiS0dEAAAASwC6rjiDzAAAAAlwSFlzAAC4jAAAuIwBzPa7LwAAAAd0SU1FB+kDCQglMAcOZEMAAAU+SURBVGje7ZpLbFRlFMd/57t3ZvoAKzTBSmIglvhIJEgTdaGwMG3xmZiyVNkpcYVGCm3RAAl9UKjRhUTDTjbGBFyQkPQhEKobEmiILoiGqNEADVRs6WPm3rnfcTF90sfce/ugJpzkm2S+O/N95//9zznfOWcGHsj9FYn6hcrDtlSVLUDJbOvMtqiOvcjUqVHpF6G7a6/pWxQAla3WaKAfAIeAh+KAzyMKDACfOoZjHXsdG+ZLJvTqVncAX4yevCySNZQAnwfKjgVloLIleERVe4CyJTLtmyKyuavO6V0QBhStXULlAcpUtXZBGKhsyW5U5SKQWuIAkxHh+a469+fYDFQdDlxVbQJN5XxsSUdKVZurWgI3NgBrtRp47T6G+VcV3RbLhKpassVW7UXg6ft8V10VMc911blDkRhQte8BTy2Dy/ZJVft+JAYqm/21ir0ClC6TjKFPMJu66hPX8zJQ2eILag+glC693846SlXtgaoWT/KbkGqFou+wjLQfHe+qUjEngG0tnqtqjwIFyzDxTKlqW9Vh350VQKC2BtiyfJNnfUmt3T6jE1c3eysCDXqA8mVeAlwzxtncWZccBBinwxJ8PFV5zZtpFLtQ8ahgYuamVuHSDWU4G35PoFxtsBs4MM5AVXN6nVV7GVgVRYFXNhg+qkkhEQCogp9VkgnBKrR9N0DnH4mo2P81YjZ31hf8aVRVVG1TVOUBXAOOA8aEH1d+HaL2617+6c/iGHA0g/WGom79sKptVlVx32xNb1V0e/wiKpqsLHIoX+OQTEzQZv10LqIki6LsXPNGa3qr61vdDSTjqJ/2YSRtI5nQY2VJdr5VigiMZCxpL2f31s9EBZHMqtZKVfPgXasUx60BV7seZEdiO/HtYTuFR5NIhQZhhGEXBdF4BiQCjpsEUdTLmYFOYkM0935s/bFnY/MGzUWRSfurl8EqOCFBuI5wPqv6+vSzVfLNvbzeYVdNASJFufASIRKJ5Bj47Ntb/PCbN/W5n8YCJlk4Q845sY8jct64Ro4CXn7nnD5XkITClFCQFApSJtT462aGr76/jedbClOGgsTMDmT9NNYbnrS33quD5xqOmNN7ii4InJxdYZ1BeY0dhQaHLb/fyuL5OoNyU8cEiOn7CZw8vaf4ghERFZEG0DvTkeo9Sk99FgQQBEpgw4+NTxTRurOMVSXu6FweR58RhN4RkQYRmXC5qqa7+1V1f5TTLHbh2TU+YjMhY5beU3PDpb99hvwQESeRGvUJQUQOdjasPDglFzJi2gIN3gbdEBbAUBZ+uu5iPW88ji+W5C47xSSLrhkxbdPS6fb64kERPgFs1MVNsgiTWPy2kfUz1qYH97XXrxicsR5wjHNKoDtOxWSShZhEcpGrMroVe2rOor66aaDCqv0xblVmveHFMqeMiHnxXOO6y3PWxAZ6BE7EPaXFY4ITIvSEaqtUN/avVZ1fWyXwhtGFYkLoQ8ymc43r87dVADr2lVwXpDF36cc7MSdZOOrY8z59BRpnUn7OzpwYOQ5cnc/BmXEQ82wtGnM8cnO3vaFkSERqY+ULCwdCEak9e2j9UKzutIh0AGfm6XzzcewzGOmI1Z2ecOg7z2iuSz3vZlfEEJsWY1442/h4/B84cg696hcRvlyIUBiJCeFYPuVDAcjRJEeBGwsREUOmHTdBjoRaL8yH2vet7hVoALVLwIRFaDjXVN67YABy2apzQpBdQP98I9MsTGhubflQxPkmSmMhkmxr7CtV1cl/NZBQ4XD6xgqKPzKAqgUYEKT7bNOGPh7I/0j+A8fRYP3A7KuzAAAAAElFTkSuQmCC;" vertex="1" parent="1">
          <mxGeometry x="490" y="131" width="48" height="48" as="geometry" />
        </mxCell>
        <mxCell id="q3a1O05Y6yr2lSj0xwcz-40" value="" style="endArrow=classic;html=1;rounded=0;exitX=1;exitY=0.5;exitDx=0;exitDy=0;" edge="1" parent="1" source="q3a1O05Y6yr2lSj0xwcz-5">
          <mxGeometry width="50" height="50" relative="1" as="geometry">
            <mxPoint x="320" y="270" as="sourcePoint" />
            <mxPoint x="470" y="160" as="targetPoint" />
          </mxGeometry>
        </mxCell>
      </root>
    </mxGraphModel>
  </diagram>
</mxfile>
